<svg width="70" height="70" viewBox="0 0 70 70" fill="none" xmlns="http://www.w3.org/2000/svg">
<rect width="70" height="70" fill="white"/>
<rect width="52" height="52" fill="black" fill-opacity="0" transform="translate(9 9)"/>
<path d="M9 9V61H61V9H9ZM57 55.8H13V14.2H57V55.8Z" fill="#E0E0E0"/>
<rect x="16" y="18" width="27" height="5" fill="#E0E0E0"/>
<rect x="16" y="26" width="35" height="2" fill="#E0E0E0"/>
<rect x="16" y="29" width="35" height="2" fill="#E0E0E0"/>
<rect x="16" y="32" width="35" height="2" fill="#E0E0E0"/>
<rect x="16" y="35" width="35" height="2" fill="#E0E0E0"/>
<rect x="16" y="38" width="35" height="2" fill="#E0E0E0"/>
<rect x="16" y="41" width="35" height="2" fill="#E0E0E0"/>
<rect x="16" y="44" width="35" height="2" fill="#E0E0E0"/>
<rect x="16" y="47" width="35" height="2" fill="#E0E0E0"/>
<rect x="16" y="50" width="35" height="2" fill="#E0E0E0"/>
</svg>
