<svg width="70" height="70" viewBox="0 0 70 70" fill="none" xmlns="http://www.w3.org/2000/svg">
<rect width="70" height="70" fill="white"/>
<rect width="30.4111" height="40" fill="black" fill-opacity="0" transform="translate(20 15)"/>
<rect width="30.4111" height="40" fill="black" fill-opacity="0" transform="translate(20 15)"/>
<path d="M24.1469 15H50.4111V50.8621H24.1469V15Z" fill="#5EB3D1"/>
<path d="M41.426 19.8276H40.0437V50.8621H47.6463V26.0345L41.426 19.8276Z" fill="#4FA1B7"/>
<path d="M46.2642 55H20V19.1379H39.3525L46.2642 26.0345V55Z" fill="#87CED9"/>
<path d="M46.2642 26.0345H39.3525V19.1379L46.2642 26.0345Z" fill="#B9E6ED"/>
<path d="M24.8381 28.1033H41.4261V29.4827H24.8381V28.1033Z" fill="#5EB3D1"/>
<path d="M24.8381 23.9655H30.3674V25.3448H24.8381V23.9655Z" fill="#5EB3D1"/>
<path d="M24.8381 32.2415H35.8967V33.6206H24.8381V32.2415Z" fill="#5EB3D1"/>
<path d="M37.2791 32.2415H41.426V33.6206H37.2791V32.2415Z" fill="#5EB3D1"/>
<path d="M24.8381 36.3794H41.4261V37.7585H24.8381V36.3794Z" fill="#5EB3D1"/>
<path d="M24.8381 44.6552H41.4261V46.0345H24.8381V44.6552Z" fill="#5EB3D1"/>
<path d="M31.0586 40.5173H41.426V41.8964H31.0586V40.5173Z" fill="#5EB3D1"/>
<path d="M24.8381 40.5173H29.6762V41.8964H24.8381V40.5173Z" fill="#5EB3D1"/>
<path d="M24.8381 48.793H27.6026V50.1724H24.8381V48.793Z" fill="#5EB3D1"/>
<path d="M28.985 48.793H41.426V50.1724H28.985V48.793Z" fill="#5EB3D1"/>
</svg>
