<svg width="70" height="70" viewBox="0 0 70 70" fill="none" xmlns="http://www.w3.org/2000/svg">
<rect width="70" height="70" fill="white"/>
<rect width="46.1387" height="40" fill="black" fill-opacity="0" transform="translate(12 15)"/>
<rect width="46.1387" height="40" fill="black" fill-opacity="0" transform="translate(12 15)"/>
<rect width="46.1387" height="40" fill="black" fill-opacity="0" transform="translate(12 15)"/>
<path d="M55.0628 18.5965C56.9672 18.8406 58.3254 20.5608 58.1177 22.4655L55.4153 46.3242C55.2075 48.223 53.4963 49.5942 51.5933 49.3868C51.5552 49.3826 51.5172 49.3778 51.4792 49.3724H51.303V27.5068C51.303 25.5643 49.7247 23.9895 47.778 23.9895H18.4036L19.0499 18.1275C19.2949 16.195 21.0449 14.8135 22.986 15.0205L55.0628 18.5965Z" fill="#00ACEA"/>
<path d="M51.3028 49.3724V51.4828C51.3028 53.4252 49.7246 55 47.7779 55H15.5249C13.5782 55 12 53.4252 12 51.4828V46.5586L21.6935 39.5241C23.2305 38.3605 25.3812 38.4592 26.8046 39.7586L33.267 45.3862C34.6215 46.5323 36.5547 46.6971 38.0844 45.7965L51.3028 38.0586V49.3724Z" fill="#00CEB4"/>
<path d="M51.3028 27.5068V38.0586L38.0844 45.7965C36.5547 46.697 34.6215 46.5323 33.267 45.3862L26.8046 39.7586C25.3812 38.4593 23.2305 38.3605 21.6935 39.5241L12 46.5586V27.5068C12 25.5643 13.5782 23.9896 15.5249 23.9896H47.7779C49.7247 23.9897 51.3028 25.5643 51.3028 27.5068Z" fill="#00EFD1"/>
<path d="M35.4995 37.3552C37.5761 37.3552 39.2595 35.6755 39.2595 33.6034C39.2595 31.5314 37.5761 29.8517 35.4995 29.8517C33.423 29.8517 31.7396 31.5314 31.7396 33.6034C31.7396 35.6755 33.423 37.3552 35.4995 37.3552Z" fill="#D4E1F4"/>
</svg>
