<svg width="70" height="70" viewBox="0 0 70 70" fill="none" xmlns="http://www.w3.org/2000/svg">
<rect width="70" height="70" fill="white"/>
<rect width="39" height="30" fill="black" fill-opacity="0" transform="translate(16 11)"/>
<path d="M21.8087 35.75L27.382 28.8328L30.7255 29.9495L37.4132 22.1458L40.7567 26.6053L41.8712 25.4893L48.5582 35.75H21.8087Z" fill="#E0E0E0"/>
<path d="M16 11V41H55V11H16ZM52 38H19V14H52V38Z" fill="#E0E0E0"/>
<path d="M29.8038 23.2602C31.3426 23.2602 32.59 22.0128 32.59 20.474C32.59 18.9352 31.3426 17.6877 29.8038 17.6877C28.2649 17.6877 27.0175 18.9352 27.0175 20.474C27.0175 22.0128 28.2649 23.2602 29.8038 23.2602Z" fill="#E0E0E0"/>
<rect width="21" height="16" fill="black" fill-opacity="0" transform="translate(5 43)"/>
<path d="M8.12779 56.2L11.1288 52.5108L12.9291 53.1064L16.5302 48.9444L18.3306 51.3228L18.9307 50.7276L22.5314 56.2H8.12779Z" fill="#E0E0E0"/>
<path d="M5 43V59H26V43H5ZM24.3846 57.4H6.61538V44.6H24.3846V57.4Z" fill="#E0E0E0"/>
<path d="M12.4328 49.5388C13.2614 49.5388 13.9331 48.8735 13.9331 48.0528C13.9331 47.2321 13.2614 46.5668 12.4328 46.5668C11.6042 46.5668 10.9325 47.2321 10.9325 48.0528C10.9325 48.8735 11.6042 49.5388 12.4328 49.5388Z" fill="#E0E0E0"/>
<rect width="21" height="16" fill="black" fill-opacity="0" transform="translate(44 43)"/>
<path d="M47.1278 56.2L50.1288 52.5108L51.9291 53.1064L55.5302 48.9444L57.3306 51.3228L57.9307 50.7276L61.5314 56.2H47.1278Z" fill="#E0E0E0"/>
<path d="M44 43V59H65V43H44ZM63.3846 57.4H45.6154V44.6H63.3846V57.4Z" fill="#E0E0E0"/>
<path d="M51.4328 49.5388C52.2614 49.5388 52.9331 48.8735 52.9331 48.0528C52.9331 47.2321 52.2614 46.5668 51.4328 46.5668C50.6042 46.5668 49.9325 47.2321 49.9325 48.0528C49.9325 48.8735 50.6042 49.5388 51.4328 49.5388Z" fill="#E0E0E0"/>
</svg>
