<svg width="70" height="70" viewBox="0 0 70 70" fill="none" xmlns="http://www.w3.org/2000/svg">
<rect width="70" height="70" fill="white"/>
<rect width="51.0202" height="40" fill="black" fill-opacity="0" transform="translate(9 15)"/>
<path d="M60.0202 15H9V55H60.0202V15Z" fill="#C3E1ED" stroke="#E7ECED" stroke-width="2" stroke-miterlimit="10"/>
<path d="M22.6662 30.5801C25.9715 30.5801 28.651 27.9064 28.651 24.6082C28.651 21.3101 25.9715 18.6364 22.6662 18.6364C19.3608 18.6364 16.6813 21.3101 16.6813 24.6082C16.6813 27.9064 19.3608 30.5801 22.6662 30.5801Z" fill="#ED8A19"/>
<path d="M59.1092 41.4645L58.1981 40.4545L47.2652 30.4545L37.6989 40.9091L42.6944 45.8936L46.3541 49.5454H59.1092V41.4645Z" fill="#1A9172"/>
<path d="M9.91102 53.1818H31.7768L28.117 49.53L18.1262 39.5609L9.91102 46.7782V53.1818Z" fill="#1A9172"/>
<path d="M59.1091 49.5455H9.91102V54.0909H59.1091V49.5455Z" fill="#6B5B4B"/>
<path d="M42.6943 45.8937L32.7035 35.9246L17.1997 49.5455H46.3541L42.6943 45.8937Z" fill="#25AE88"/>
</svg>
