<svg width="70" height="70" viewBox="0 0 70 70" fill="none" xmlns="http://www.w3.org/2000/svg">
<rect width="70" height="70" fill="white"/>
<rect width="43.6787" height="40" fill="black" fill-opacity="0" transform="translate(13 15)"/>
<path d="M56.6787 47.2518V55H13V47.2518L34.8393 44.3463L56.6787 47.2518Z" fill="#C2B8B9"/>
<path d="M56.6787 15H13V47.2518H56.6787V15Z" fill="#1B4145"/>
<path d="M34.7899 41.6973C40.641 41.6973 45.3843 36.9643 45.3843 31.1259C45.3843 25.2875 40.641 20.5545 34.7899 20.5545C28.9387 20.5545 24.1954 25.2875 24.1954 31.1259C24.1954 36.9643 28.9387 41.6973 34.7899 41.6973Z" fill="#F14742"/>
<path d="M31.2873 25.0596L41.8174 31.1259L31.2873 37.1921V25.0596Z" fill="white"/>
<path d="M52.7961 51.8523H16.8825C16.4805 51.8523 16.1546 51.5271 16.1546 51.1259C16.1546 50.7246 16.4806 50.3995 16.8825 50.3995H52.7961C53.1983 50.3995 53.5241 50.7247 53.5241 51.1259C53.5241 51.5272 53.1983 51.8523 52.7961 51.8523Z" fill="#ECE7EA"/>
</svg>
